<svg width="70" height="70" viewBox="0 0 70 70" fill="none" xmlns="http://www.w3.org/2000/svg">
<g id="favicon">
<circle id="favicon__achtergrond" opacity="0.4" cx="35" cy="35" r="29.75" fill="white" stroke="#515086" stroke-width="0.5"/>
<path id="favicon__logo" d="M17.5664 36.7031L14.3633 39.8594V48H12.4414V25.25H14.3633V37.5156L26.0195 25.25H28.4414L18.9102 35.375L29.1758 48H26.832L17.5664 36.7031ZM29.0445 20.9844H31.2154L42.4967 50.3193H40.3258L29.0445 20.9844ZM43.5586 48V25.25H51.3555C53.9284 25.25 55.8867 25.7656 57.2305 26.7969C58.5742 27.8281 59.2461 29.3646 59.2461 31.4062C59.2461 32.4479 58.9648 33.3854 58.4023 34.2188C57.8398 35.0521 57.0169 35.6979 55.9336 36.1562C57.1628 36.4896 58.1107 37.1198 58.7773 38.0469C59.4544 38.9635 59.793 40.0677 59.793 41.3594C59.793 43.4948 59.1055 45.1354 57.7305 46.2812C56.3659 47.4271 54.4076 48 51.8555 48H43.5586ZM47.5117 37.7344V44.8438H51.9023C53.1419 44.8438 54.1107 44.5365 54.8086 43.9219C55.5065 43.3073 55.8555 42.4531 55.8555 41.3594C55.8555 38.9948 54.6471 37.7865 52.2305 37.7344H47.5117ZM47.5117 34.8281H51.3867C52.6159 34.8281 53.5742 34.5521 54.2617 34C54.9596 33.4375 55.3086 32.6458 55.3086 31.625C55.3086 30.5 54.9857 29.6875 54.3398 29.1875C53.7044 28.6875 52.7096 28.4375 51.3555 28.4375H47.5117V34.8281Z" fill="#515086"/>
</g>
</svg>
